<?xml version="1.0" standalone="no"?><!DOCTYPE svg PUBLIC "-//W3C//DTD SVG 1.1//EN" "http://www.w3.org/Graphics/SVG/1.1/DTD/svg11.dtd"><svg t="1525078320025" class="icon" style="" viewBox="0 0 1024 1024" version="1.1" xmlns="http://www.w3.org/2000/svg" p-id="2066" xmlns:xlink="http://www.w3.org/1999/xlink" width="200" height="200"><defs><style type="text/css"></style></defs><path d="M300.8 179.2c70.4 0 134.4 57.6 134.4 134.4C435.2 384 377.6 448 300.8 448c-70.4-6.4-134.4-64-134.4-140.8 0-70.4 64-128 134.4-128zM51.2 57.6h921.6c19.2 0 38.4 19.2 38.4 38.4v774.4c0 19.2-19.2 38.4-38.4 38.4H51.2c-19.2 0-38.4-19.2-38.4-38.4V96c0-19.2 19.2-38.4 38.4-38.4z m883.2 76.8H89.6v550.4l179.2-179.2c6.4-6.4 25.6-6.4 32 0L441.6 640l204.8-204.8c6.4-6.4 25.6-6.4 32 0l256 256V134.4zM89.6 748.8V832h844.8v-70.4l-275.2-275.2-185.6 185.6 64 64c6.4 6.4 6.4 25.6 0 32-6.4 6.4-25.6 6.4-32 0l-83.2-83.2-134.4-134.4-198.4 198.4z m211.2-524.8c-44.8 0-83.2 38.4-83.2 83.2 0 51.2 38.4 89.6 89.6 89.6 51.2 0 89.6-38.4 89.6-89.6-6.4-44.8-44.8-83.2-96-83.2z" fill="#ffffff" p-id="2067"></path></svg>